<svg xmlns="http://www.w3.org/2000/svg" xmlns:xlink="http://www.w3.org/1999/xlink" width="168.591" height="83" viewBox="0 0 168.591 83">
  <defs>
    <clipPath id="clip-path">
      <path id="Path_10398" data-name="Path 10398" d="M25.333,40.056,20.944,23.7l-6.384-.6Zm1.995,6.184-1.6-3.99L13.364,22.9l-3.591-.4ZM17.952,21.7l11.77,1.2.6-7.181Zm.2,14.163L8.177,22.5l-1.6-.2,11.57,13.565Zm8.179,4.588c0-.8,2.793-14.762,3.192-15.759l-7.381-.8ZM17.353,20.706h0l14.562-6.982L22.141,6.343l-2.793-.2Zm15.36-7.58,8.378-5.187-17.156-1.6Zm-22.342-1.6L6.78,17.314c-1.4,2.394-1.6,3.391,1.6,3.391l1.8.2,6.583.6Zm1-1,4.987,7.979,1.8-12.767h-.8a6.65,6.65,0,0,0-1.995,0C13.962,6.343,12.566,8.138,11.369,10.532Zm15.56,31.918,2.593,6.384.8-22.741Z" transform="translate(-5.817 -5.656)" fill="#c70909"/>
    </clipPath>
    <clipPath id="clip-path-2">
      <path id="Path_10399" data-name="Path 10399" d="M1.409,21.457C5.2,17.866,12.381,8.291,13.777,5.1,15.772.71,15.772,1.907,19.562,2.506A263.994,263.994,0,0,0,74.221,5.7c1.2,0,2.194-.2,3.391-.2,5.985-.4,5.386-1,9.575,3.79,3.79,4.189,8.977,9.376,11.171,11.57C93.97,17.866,91.377,15.672,84,12.679c-6.583-2.793-12.169-2.394-19.749-2.394a248.69,248.69,0,0,1-37.9-2.194c-2.793-.4-5.386-1-7.58,1.2-1.2,1.4-2.194,3.591-4.389,6.782-6.384,9.575-6.184,7.979,3.591,17.954C27.542,44,42.3,64.545,47.291,73.323c-1-6.982-2.593-13.565-6.184-17.156,5.985,2.593,5.985,9.176,7.58,16.557,0-1.6,2.992-14.762,8.578-16.158a35.832,35.832,0,0,0-7.181,16.757c1.995-1.4,10.972-15.161,19.151-16.956A125.6,125.6,0,0,0,48.089,84.893c-7.58-15.36-29.524-45.882-46.68-60.843-1.995-1.8-1.8-.8,0-2.593" transform="translate(0.013 -1.893)" fill="#c70909"/>
    </clipPath>
  </defs>
  <g id="Diamond_Logo" data-name="Diamond Logo" transform="translate(0.013 -1.893)">
    <g id="Group_14954" data-name="Group 14954" transform="translate(11.617 9.399)">
      <g id="Group_14953" data-name="Group 14953" clip-path="url(#clip-path)">
        <path id="Path_10397" data-name="Path 10397" d="M42.8,49.286l-1-44.086L5.1,6l.8,44.086Z" transform="translate(-6.53 -6.109)" fill="#c70909"/>
      </g>
    </g>
    <g id="Group_14956" data-name="Group 14956" transform="translate(-0.013 1.893)">
      <g id="Group_14955" data-name="Group 14955" clip-path="url(#clip-path-2)">
        <rect id="Rectangle_1239" data-name="Rectangle 1239" width="98.945" height="84.382" transform="translate(-0.573 -0.983)" fill="#c70909"/>
      </g>
    </g>
    <rect id="Rectangle_1240" data-name="Rectangle 1240" width="7.58" height="5.187" transform="translate(40.907 47.589)" fill="#727271"/>
    <rect id="Rectangle_1241" data-name="Rectangle 1241" width="7.58" height="5.187" transform="translate(49.286 47.589)" fill="#fff200"/>
    <rect id="Rectangle_1242" data-name="Rectangle 1242" width="7.58" height="5.187" transform="translate(57.664 47.589)" fill="#ec008c"/>
    <rect id="Rectangle_1243" data-name="Rectangle 1243" width="7.58" height="5.187" transform="translate(66.043 47.589)" fill="#00aeef"/>
    <path id="Path_10400" data-name="Path 10400" d="M33.567,22.173a24.9,24.9,0,0,0-.4-4.189,4.641,4.641,0,0,0-1.4-2.593,5.076,5.076,0,0,0-3.192-1H25.388V30.153h3.591c1.8,0,3.192-.6,3.79-1.995a21.619,21.619,0,0,0,.8-5.985M44.738,11.8V32.746H39.95V11.8ZM58.7,24.567,55.51,15.59l-3.192,8.977Zm-7.58,3.192-1.8,4.987H45.935L53.316,11.8H58.7l7.58,20.946H61.494l-1.8-4.987Zm32.516-8.977L77.653,33.145,71.269,18.782V32.746H67.878V11.8h5.386l4.987,10.972L83.039,11.8h5.386V32.746H83.637Zm12.169,3.391a18.5,18.5,0,0,0,.8,5.586c.4,1.4,1.6,1.995,3.192,1.995a3.946,3.946,0,0,0,2.793-1,6.183,6.183,0,0,0,1.2-2.593,21.722,21.722,0,0,0,.2-3.79,20.582,20.582,0,0,0-.2-3.79,5.222,5.222,0,0,0-1.2-2.593,3.106,3.106,0,0,0-2.793-1.2c-1.8,0-2.793.6-3.391,1.995A18.155,18.155,0,0,0,95.806,22.173ZM99.8,11.8a10.767,10.767,0,0,1,5.386,1.2,7.043,7.043,0,0,1,2.992,3.391,16.2,16.2,0,0,1,.8,5.785,17.02,17.02,0,0,1-1,5.985,6.689,6.689,0,0,1-2.992,3.591,10.767,10.767,0,0,1-5.386,1.2,10.494,10.494,0,0,1-5.187-1.2,7.043,7.043,0,0,1-2.992-3.391,17.02,17.02,0,0,1-1-5.985c0-3.591.8-6.184,2.194-7.78C94.41,12.6,96.6,11.8,99.8,11.8Zm24.936,14.961V11.8h3.591V32.746h-5.785l-7.78-15.759V32.746h-3.591V11.8h5.985Zm19.35-4.588a24.9,24.9,0,0,0-.4-4.189,4.641,4.641,0,0,0-1.4-2.593,5.076,5.076,0,0,0-3.192-1H135.9V30.153h3.591c1.8,0,3.192-.6,3.79-1.995A16.012,16.012,0,0,0,144.081,22.173ZM140.491,11.8c2.793,0,4.788,1,5.785,2.793a13.745,13.745,0,0,1,1.8,7.58,15.52,15.52,0,0,1-.8,5.785,6.475,6.475,0,0,1-2.394,3.391,7.586,7.586,0,0,1-4.389,1.2h-9.376V11.8Zm-110.515,0c2.793,0,4.788,1,5.785,2.793a13.745,13.745,0,0,1,1.8,7.58,15.52,15.52,0,0,1-.8,5.785,6.475,6.475,0,0,1-2.394,3.391,7.586,7.586,0,0,1-4.389,1.2H20.6V11.8Z" transform="translate(20.507 9.856)" fill="#eee" fill-rule="evenodd"/>
    <path id="Path_10401" data-name="Path 10401" d="M38.5,30.882V24.1h2.593a2.648,2.648,0,0,1,1.995.6,1.964,1.964,0,0,1,.6,1.6,1.619,1.619,0,0,1-.8,1.6,3.209,3.209,0,0,1-2.194.6h-.6v2.793H38.5Zm7.979,0V26.294h1.4v1.2a1.992,1.992,0,0,1,.8-1,1.036,1.036,0,0,1,.8-.4h.4c.2,0,.4.2.6.2l-.4,1.4c-.2-.2-.2-.2-.4-.2h-.4a1.384,1.384,0,0,0-1.2,1.4v1.995h-1.6ZM52.863,24.7a.705.705,0,1,1,.2.6A.733.733,0,0,1,52.863,24.7Zm0,6.184V26.294h1.4v4.588Zm4.788,0V26.294h1.4v.6a2.754,2.754,0,0,1,.8-.6,1.2,1.2,0,0,1,.8-.2,1.686,1.686,0,0,1,1.2.4,2.883,2.883,0,0,1,.4,1.4v2.992h-1.4V28.089c0-.4,0-.6-.2-.8s-.2-.2-.6-.2a.733.733,0,0,0-.6.2c-.2.2-.4.4-.4.6v2.992h-1.4Zm7.979-3.591h-.6v-.4L67.026,24.9h.2v1.4h1.6v1h-1.6v1.8c0,.4,0,.6.2.8s.2.2.6.2h.4c.2,0,.4,0,.4-.2v1.2c-.2,0-.4.2-.8.2h-.8a1.686,1.686,0,0,1-1.2-.4,3.09,3.09,0,0,1-.4-1.6ZM71.415,24.7a.705.705,0,1,1,.2.6A.733.733,0,0,1,71.415,24.7Zm0,6.184V26.294h1.4v4.588Zm4.588,0V26.294h1.4v.6a2.754,2.754,0,0,1,.8-.6,1.2,1.2,0,0,1,.8-.2,1.686,1.686,0,0,1,1.2.4,2.883,2.883,0,0,1,.4,1.4v2.992h-1.4V28.089c0-.4,0-.6-.2-.8s-.2-.2-.6-.2a.733.733,0,0,0-.6.2c-.2.2-.4.4-.4.6v2.992H76Zm8.777-1.4a4.36,4.36,0,0,1-1-.6,1.524,1.524,0,0,1-.4-1,1.206,1.206,0,0,1,.6-1.2,3.983,3.983,0,0,1,1.8-.4h2.394v1h-.6c0,.2.2.2.2.4v.4a1.524,1.524,0,0,1-.4,1,3.248,3.248,0,0,1-1.2.6h-.4c-.4,0-.6.2-.6.4s.2.2.8.4h.4a2.139,2.139,0,0,1,1.2.4,1.524,1.524,0,0,1,.4,1,1.422,1.422,0,0,1-.6,1.2,4.239,4.239,0,0,1-3.591,0,1.1,1.1,0,0,1-.6-1,1.384,1.384,0,0,1,1.4-1.2.705.705,0,0,1-.6-.6c0-.2,0-.4.2-.4C84.382,29.486,84.581,29.486,84.781,29.486Zm1-2.394a.705.705,0,1,0,.6.2A.874.874,0,0,0,85.778,27.092Zm-1,4.788c0,.2,0,.4.2.4s.4.2.8.2.6,0,.8-.2c.2,0,.2-.2.2-.4s0-.4-.2-.4-.4-.2-.8-.2-.6,0-.8.2C84.781,31.48,84.781,31.68,84.781,31.879Zm11.371-1V24.1h2.593a2.648,2.648,0,0,1,1.995.6,1.964,1.964,0,0,1,.6,1.6,1.619,1.619,0,0,1-.8,1.6,3.209,3.209,0,0,1-2.194.6h-.6v2.793h-1.6Zm2.593-3.99c.4,0,.6,0,.8-.2a1,1,0,0,0,0-1.2c-.2-.2-.4-.2-.8-.2h-.8v1.6Zm5.386,3.99V26.294h1.4v1.2a1.991,1.991,0,0,1,.8-1,1.036,1.036,0,0,1,.8-.4h.4c.2,0,.4.2.6.2l-.4,1.4c-.2-.2-.2-.2-.4-.2h-.4a1.384,1.384,0,0,0-1.2,1.4v1.995h-1.6Zm7.78-2.793h1.8c0-.4-.2-.6-.2-.8a1,1,0,0,0-1.2,0C112.11,27.69,111.911,27.89,111.911,28.089Zm3.192,2.394c-.4.2-.6.4-1,.4a2.53,2.53,0,0,1-1.2.2,3.37,3.37,0,0,1-1.995-.6,2.438,2.438,0,0,1-.6-1.8,2.116,2.116,0,0,1,2.394-2.394,1.945,1.945,0,0,1,1.8.8,2.978,2.978,0,0,1,.6,1.995h-3.391a1.036,1.036,0,0,0,.4.8,2.53,2.53,0,0,0,1.2.2,1.2,1.2,0,0,0,.8-.2c.2-.2.6-.2.8-.4v1Zm2.793.2v-1c.2.2.6.2.8.4.2,0,.4.2.6.2h.6a.2.2,0,1,0,0-.4,2.469,2.469,0,0,0-.6-.4h-.2c-.8-.4-1.4-.8-1.4-1.4a1.524,1.524,0,0,1,.4-1,2.883,2.883,0,0,1,1.4-.4h.8c.2,0,.6.2.8.2v1c-.4-.2-.6-.2-.8-.4-.2,0-.4-.2-.6-.2h-.4l-.2.2c0,.2.2.4.8.6.2,0,.4.2.6.2a2.754,2.754,0,0,1,.8.6c.2.2.2.4.2.8a1.724,1.724,0,0,1-.6,1.2,2.883,2.883,0,0,1-1.4.4h-.8C118.294,30.882,118.095,30.882,117.9,30.682Zm6.184,0v-1c.2.2.6.2.8.4.2,0,.4.2.6.2h.6a.2.2,0,1,0,0-.4,2.469,2.469,0,0,0-.6-.4h-.2c-.8-.4-1.4-.8-1.4-1.4a1.524,1.524,0,0,1,.4-1,2.883,2.883,0,0,1,1.4-.4h.8c.2,0,.6.2.8.2v1c-.4-.2-.6-.2-.8-.4-.2,0-.4-.2-.6-.2h-.4l-.2.2c0,.2.2.4.8.6.2,0,.4.2.6.2a2.754,2.754,0,0,1,.8.6c.2.2.2.4.2.8a1.724,1.724,0,0,1-.6,1.2,2.883,2.883,0,0,1-1.4.4h-.8C124.678,30.882,124.279,30.882,124.079,30.682Zm-82.986-3.79c.4,0,.6,0,.8-.2a1,1,0,0,0,0-1.2c-.2-.2-.4-.2-.8-.2h-.8v1.6Z" transform="translate(38.315 21.894)" fill="#eee" fill-rule="evenodd"/>
  </g>
</svg>
